<svg xmlns="http://www.w3.org/2000/svg" xmlns:xlink="http://www.w3.org/1999/xlink" contentStyleType="text/css" height="606px" preserveAspectRatio="none" style="width:3291px;height:606px;background:#FFFFFF;" version="1.1" viewBox="0 0 3291 606" width="3291px" zoomAndPan="magnify"><defs/><g><!--cluster Frontend--><g id="cluster_Frontend"><path d="M65.5,6 L138.5,6 A3.75,3.75 0 0 1 141,8.5 L148,28.2969 L1700.5,28.2969 A2.5,2.5 0 0 1 1703,30.7969 L1703,488.28 A2.5,2.5 0 0 1 1700.5,490.78 L65.5,490.78 A2.5,2.5 0 0 1 63,488.28 L63,8.5 A2.5,2.5 0 0 1 65.5,6 " fill="none" style="stroke:#000000;stroke-width:1.5;"/><line style="stroke:#000000;stroke-width:1.5;" x1="63" x2="148" y1="28.2969" y2="28.2969"/><text fill="#000000" font-family="sans-serif" font-size="14" font-weight="bold" lengthAdjust="spacing" textLength="72" x="67" y="20.9951">Frontend</text></g><!--cluster Pages--><g id="cluster_Pages"><path d="M97.5,329.19 L146.5,329.19 A3.75,3.75 0 0 1 149,331.69 L156,351.4869 L1668.5,351.4869 A2.5,2.5 0 0 1 1671,353.9869 L1671,456.28 A2.5,2.5 0 0 1 1668.5,458.78 L97.5,458.78 A2.5,2.5 0 0 1 95,456.28 L95,331.69 A2.5,2.5 0 0 1 97.5,329.19 " fill="none" style="stroke:#000000;stroke-width:1.5;"/><line style="stroke:#000000;stroke-width:1.5;" x1="95" x2="156" y1="351.4869" y2="351.4869"/><text fill="#000000" font-family="sans-serif" font-size="14" font-weight="bold" lengthAdjust="spacing" textLength="48" x="99" y="344.1851">Pages</text></g><!--entity SessionProvider--><g id="elem_SessionProvider"><rect fill="#F0F8FF" height="62.5938" rx="2.5" ry="2.5" style="stroke:#181818;stroke-width:0.5;" width="151" x="78.5" y="41"/><rect fill="#F0F8FF" height="10" style="stroke:#181818;stroke-width:0.5;" width="15" x="209.5" y="46"/><rect fill="#F0F8FF" height="2" style="stroke:#181818;stroke-width:0.5;" width="4" x="207.5" y="48"/><rect fill="#F0F8FF" height="2" style="stroke:#181818;stroke-width:0.5;" width="4" x="207.5" y="52"/><text fill="#000000" font-family="sans-serif" font-size="14" font-style="italic" lengthAdjust="spacing" textLength="81" x="108.5" y="73.9951">&#171;NextAuth&#187;</text><text fill="#000000" font-family="sans-serif" font-size="14" lengthAdjust="spacing" textLength="111" x="93.5" y="90.292">SessionProvider</text></g><!--entity RootLayout--><g id="elem_RootLayout"><rect fill="#E0FFFF" height="62.5938" rx="2.5" ry="2.5" style="stroke:#181818;stroke-width:0.5;" width="118" x="87" y="180.6"/><rect fill="#E0FFFF" height="10" style="stroke:#181818;stroke-width:0.5;" width="15" x="185" y="185.6"/><rect fill="#E0FFFF" height="2" style="stroke:#181818;stroke-width:0.5;" width="4" x="183" y="187.6"/><rect fill="#E0FFFF" height="2" style="stroke:#181818;stroke-width:0.5;" width="4" x="183" y="191.6"/><text fill="#000000" font-family="sans-serif" font-size="14" font-style="italic" lengthAdjust="spacing" textLength="63" x="109.5" y="213.5951">&#171;Layout&#187;</text><text fill="#000000" font-family="sans-serif" font-size="14" lengthAdjust="spacing" textLength="78" x="102" y="229.892">RootLayout</text></g><!--entity Navbar--><g id="elem_Navbar"><rect fill="#F5F5DC" height="62.5938" rx="2.5" ry="2.5" style="stroke:#181818;stroke-width:0.5;" width="140" x="818" y="41"/><rect fill="#F5F5DC" height="10" style="stroke:#181818;stroke-width:0.5;" width="15" x="938" y="46"/><rect fill="#F5F5DC" height="2" style="stroke:#181818;stroke-width:0.5;" width="4" x="936" y="48"/><rect fill="#F5F5DC" height="2" style="stroke:#181818;stroke-width:0.5;" width="4" x="936" y="52"/><text fill="#000000" font-family="sans-serif" font-size="14" font-style="italic" lengthAdjust="spacing" textLength="100" x="833" y="73.9951">&#171;Component&#187;</text><text fill="#000000" font-family="sans-serif" font-size="14" lengthAdjust="spacing" textLength="42" x="862" y="90.292">&#23566;&#33322;&#27396;</text></g><!--entity Footer--><g id="elem_Footer"><rect fill="#FFE4C4" height="62.5938" rx="2.5" ry="2.5" style="stroke:#181818;stroke-width:0.5;" width="140" x="1270" y="41"/><rect fill="#FFE4C4" height="10" style="stroke:#181818;stroke-width:0.5;" width="15" x="1390" y="46"/><rect fill="#FFE4C4" height="2" style="stroke:#181818;stroke-width:0.5;" width="4" x="1388" y="48"/><rect fill="#FFE4C4" height="2" style="stroke:#181818;stroke-width:0.5;" width="4" x="1388" y="52"/><text fill="#000000" font-family="sans-serif" font-size="14" font-style="italic" lengthAdjust="spacing" textLength="100" x="1285" y="73.9951">&#171;Component&#187;</text><text fill="#000000" font-family="sans-serif" font-size="14" lengthAdjust="spacing" textLength="28" x="1321" y="90.292">&#38913;&#33139;</text></g><!--entity HomePage--><g id="elem_HomePage"><rect fill="#FFE4E1" height="62.5938" rx="2.5" ry="2.5" style="stroke:#181818;stroke-width:0.5;" width="93" x="138.5" y="372.19"/><rect fill="#FFE4E1" height="10" style="stroke:#181818;stroke-width:0.5;" width="15" x="211.5" y="377.19"/><rect fill="#FFE4E1" height="2" style="stroke:#181818;stroke-width:0.5;" width="4" x="209.5" y="379.19"/><rect fill="#FFE4E1" height="2" style="stroke:#181818;stroke-width:0.5;" width="4" x="209.5" y="383.19"/><text fill="#000000" font-family="sans-serif" font-size="14" font-style="italic" lengthAdjust="spacing" textLength="53" x="153.5" y="405.1851">&#171;Page&#187;</text><text fill="#000000" font-family="sans-serif" font-size="14" lengthAdjust="spacing" textLength="28" x="166" y="421.482">&#39318;&#38913;</text></g><!--entity LoginPage--><g id="elem_LoginPage"><rect fill="#F0FFF0" height="62.5938" rx="2.5" ry="2.5" style="stroke:#181818;stroke-width:0.5;" width="93" x="266.5" y="372.19"/><rect fill="#F0FFF0" height="10" style="stroke:#181818;stroke-width:0.5;" width="15" x="339.5" y="377.19"/><rect fill="#F0FFF0" height="2" style="stroke:#181818;stroke-width:0.5;" width="4" x="337.5" y="379.19"/><rect fill="#F0FFF0" height="2" style="stroke:#181818;stroke-width:0.5;" width="4" x="337.5" y="383.19"/><text fill="#000000" font-family="sans-serif" font-size="14" font-style="italic" lengthAdjust="spacing" textLength="53" x="281.5" y="405.1851">&#171;Page&#187;</text><text fill="#000000" font-family="sans-serif" font-size="14" lengthAdjust="spacing" textLength="28" x="294" y="421.482">&#30331;&#20837;</text></g><!--entity RegisterPage--><g id="elem_RegisterPage"><rect fill="#FFF0F5" height="62.5938" rx="2.5" ry="2.5" style="stroke:#181818;stroke-width:0.5;" width="93" x="394.5" y="372.19"/><rect fill="#FFF0F5" height="10" style="stroke:#181818;stroke-width:0.5;" width="15" x="467.5" y="377.19"/><rect fill="#FFF0F5" height="2" style="stroke:#181818;stroke-width:0.5;" width="4" x="465.5" y="379.19"/><rect fill="#FFF0F5" height="2" style="stroke:#181818;stroke-width:0.5;" width="4" x="465.5" y="383.19"/><text fill="#000000" font-family="sans-serif" font-size="14" font-style="italic" lengthAdjust="spacing" textLength="53" x="409.5" y="405.1851">&#171;Page&#187;</text><text fill="#000000" font-family="sans-serif" font-size="14" lengthAdjust="spacing" textLength="28" x="422" y="421.482">&#35387;&#20874;</text></g><!--entity DashboardPage--><g id="elem_DashboardPage"><rect fill="#FFF5EE" height="62.5938" rx="2.5" ry="2.5" style="stroke:#181818;stroke-width:0.5;" width="93" x="522.5" y="372.19"/><rect fill="#FFF5EE" height="10" style="stroke:#181818;stroke-width:0.5;" width="15" x="595.5" y="377.19"/><rect fill="#FFF5EE" height="2" style="stroke:#181818;stroke-width:0.5;" width="4" x="593.5" y="379.19"/><rect fill="#FFF5EE" height="2" style="stroke:#181818;stroke-width:0.5;" width="4" x="593.5" y="383.19"/><text fill="#000000" font-family="sans-serif" font-size="14" font-style="italic" lengthAdjust="spacing" textLength="53" x="537.5" y="405.1851">&#171;Page&#187;</text><text fill="#000000" font-family="sans-serif" font-size="14" lengthAdjust="spacing" textLength="42" x="543" y="421.482">&#20736;&#34920;&#26495;</text></g><!--entity TicketsPage--><g id="elem_TicketsPage"><rect fill="#FFFAF0" height="62.5938" rx="2.5" ry="2.5" style="stroke:#181818;stroke-width:0.5;" width="96" x="651" y="372.19"/><rect fill="#FFFAF0" height="10" style="stroke:#181818;stroke-width:0.5;" width="15" x="727" y="377.19"/><rect fill="#FFFAF0" height="2" style="stroke:#181818;stroke-width:0.5;" width="4" x="725" y="379.19"/><rect fill="#FFFAF0" height="2" style="stroke:#181818;stroke-width:0.5;" width="4" x="725" y="383.19"/><text fill="#000000" font-family="sans-serif" font-size="14" font-style="italic" lengthAdjust="spacing" textLength="53" x="667.5" y="405.1851">&#171;Page&#187;</text><text fill="#000000" font-family="sans-serif" font-size="14" lengthAdjust="spacing" textLength="56" x="666" y="421.482">&#25216;&#34899;&#25903;&#25588;</text></g><!--entity ContactPage--><g id="elem_ContactPage"><rect fill="#FDF5E6" height="62.5938" rx="2.5" ry="2.5" style="stroke:#181818;stroke-width:0.5;" width="93" x="782.5" y="372.19"/><rect fill="#FDF5E6" height="10" style="stroke:#181818;stroke-width:0.5;" width="15" x="855.5" y="377.19"/><rect fill="#FDF5E6" height="2" style="stroke:#181818;stroke-width:0.5;" width="4" x="853.5" y="379.19"/><rect fill="#FDF5E6" height="2" style="stroke:#181818;stroke-width:0.5;" width="4" x="853.5" y="383.19"/><text fill="#000000" font-family="sans-serif" font-size="14" font-style="italic" lengthAdjust="spacing" textLength="53" x="797.5" y="405.1851">&#171;Page&#187;</text><text fill="#000000" font-family="sans-serif" font-size="14" lengthAdjust="spacing" textLength="28" x="810" y="421.482">&#32879;&#32363;</text></g><!--entity PricingPage--><g id="elem_PricingPage"><rect fill="#F5F5F5" height="62.5938" rx="2.5" ry="2.5" style="stroke:#181818;stroke-width:0.5;" width="93" x="910.5" y="372.19"/><rect fill="#F5F5F5" height="10" style="stroke:#181818;stroke-width:0.5;" width="15" x="983.5" y="377.19"/><rect fill="#F5F5F5" height="2" style="stroke:#181818;stroke-width:0.5;" width="4" x="981.5" y="379.19"/><rect fill="#F5F5F5" height="2" style="stroke:#181818;stroke-width:0.5;" width="4" x="981.5" y="383.19"/><text fill="#000000" font-family="sans-serif" font-size="14" font-style="italic" lengthAdjust="spacing" textLength="53" x="925.5" y="405.1851">&#171;Page&#187;</text><text fill="#000000" font-family="sans-serif" font-size="14" lengthAdjust="spacing" textLength="28" x="938" y="421.482">&#23450;&#20729;</text></g><!--entity TermsPage--><g id="elem_TermsPage"><rect fill="#FFFAFA" height="62.5938" rx="2.5" ry="2.5" style="stroke:#181818;stroke-width:0.5;" width="93" x="1038.5" y="372.19"/><rect fill="#FFFAFA" height="10" style="stroke:#181818;stroke-width:0.5;" width="15" x="1111.5" y="377.19"/><rect fill="#FFFAFA" height="2" style="stroke:#181818;stroke-width:0.5;" width="4" x="1109.5" y="379.19"/><rect fill="#FFFAFA" height="2" style="stroke:#181818;stroke-width:0.5;" width="4" x="1109.5" y="383.19"/><text fill="#000000" font-family="sans-serif" font-size="14" font-style="italic" lengthAdjust="spacing" textLength="53" x="1053.5" y="405.1851">&#171;Page&#187;</text><text fill="#000000" font-family="sans-serif" font-size="14" lengthAdjust="spacing" textLength="28" x="1066" y="421.482">&#26781;&#27454;</text></g><!--entity PrivacyPage--><g id="elem_PrivacyPage"><rect fill="#F8F8FF" height="62.5938" rx="2.5" ry="2.5" style="stroke:#181818;stroke-width:0.5;" width="93" x="1166.5" y="372.19"/><rect fill="#F8F8FF" height="10" style="stroke:#181818;stroke-width:0.5;" width="15" x="1239.5" y="377.19"/><rect fill="#F8F8FF" height="2" style="stroke:#181818;stroke-width:0.5;" width="4" x="1237.5" y="379.19"/><rect fill="#F8F8FF" height="2" style="stroke:#181818;stroke-width:0.5;" width="4" x="1237.5" y="383.19"/><text fill="#000000" font-family="sans-serif" font-size="14" font-style="italic" lengthAdjust="spacing" textLength="53" x="1181.5" y="405.1851">&#171;Page&#187;</text><text fill="#000000" font-family="sans-serif" font-size="14" lengthAdjust="spacing" textLength="28" x="1194" y="421.482">&#38577;&#31169;</text></g><!--entity ProductsPage--><g id="elem_ProductsPage"><rect fill="#FFFFF0" height="62.5938" rx="2.5" ry="2.5" style="stroke:#181818;stroke-width:0.5;" width="93" x="1294.5" y="372.19"/><rect fill="#FFFFF0" height="10" style="stroke:#181818;stroke-width:0.5;" width="15" x="1367.5" y="377.19"/><rect fill="#FFFFF0" height="2" style="stroke:#181818;stroke-width:0.5;" width="4" x="1365.5" y="379.19"/><rect fill="#FFFFF0" height="2" style="stroke:#181818;stroke-width:0.5;" width="4" x="1365.5" y="383.19"/><text fill="#000000" font-family="sans-serif" font-size="14" font-style="italic" lengthAdjust="spacing" textLength="53" x="1309.5" y="405.1851">&#171;Page&#187;</text><text fill="#000000" font-family="sans-serif" font-size="14" lengthAdjust="spacing" textLength="28" x="1322" y="421.482">&#29986;&#21697;</text></g><!--entity AboutPage--><g id="elem_AboutPage"><rect fill="#F5FFFA" height="62.5938" rx="2.5" ry="2.5" style="stroke:#181818;stroke-width:0.5;" width="93" x="1422.5" y="372.19"/><rect fill="#F5FFFA" height="10" style="stroke:#181818;stroke-width:0.5;" width="15" x="1495.5" y="377.19"/><rect fill="#F5FFFA" height="2" style="stroke:#181818;stroke-width:0.5;" width="4" x="1493.5" y="379.19"/><rect fill="#F5FFFA" height="2" style="stroke:#181818;stroke-width:0.5;" width="4" x="1493.5" y="383.19"/><text fill="#000000" font-family="sans-serif" font-size="14" font-style="italic" lengthAdjust="spacing" textLength="53" x="1437.5" y="405.1851">&#171;Page&#187;</text><text fill="#000000" font-family="sans-serif" font-size="14" lengthAdjust="spacing" textLength="28" x="1450" y="421.482">&#38364;&#26044;</text></g><!--entity FAQPage--><g id="elem_FAQPage"><rect fill="#FAF0E6" height="62.5938" rx="2.5" ry="2.5" style="stroke:#181818;stroke-width:0.5;" width="96" x="1551" y="372.19"/><rect fill="#FAF0E6" height="10" style="stroke:#181818;stroke-width:0.5;" width="15" x="1627" y="377.19"/><rect fill="#FAF0E6" height="2" style="stroke:#181818;stroke-width:0.5;" width="4" x="1625" y="379.19"/><rect fill="#FAF0E6" height="2" style="stroke:#181818;stroke-width:0.5;" width="4" x="1625" y="383.19"/><text fill="#000000" font-family="sans-serif" font-size="14" font-style="italic" lengthAdjust="spacing" textLength="53" x="1567.5" y="405.1851">&#171;Page&#187;</text><text fill="#000000" font-family="sans-serif" font-size="14" lengthAdjust="spacing" textLength="56" x="1566" y="421.482">&#24120;&#35211;&#21839;&#38988;</text></g><!--entity ???--><g id="elem_&#23566;&#33322;&#27396;"><rect fill="#F1F1F1" height="46.2969" rx="2.5" ry="2.5" style="stroke:#181818;stroke-width:0.5;" width="82" x="7" y="553.78"/><rect fill="#F1F1F1" height="10" style="stroke:#181818;stroke-width:0.5;" width="15" x="69" y="558.78"/><rect fill="#F1F1F1" height="2" style="stroke:#181818;stroke-width:0.5;" width="4" x="67" y="560.78"/><rect fill="#F1F1F1" height="2" style="stroke:#181818;stroke-width:0.5;" width="4" x="67" y="564.78"/><text fill="#000000" font-family="sans-serif" font-size="14" lengthAdjust="spacing" textLength="42" x="22" y="586.7751">&#23566;&#33322;&#27396;</text></g><!--entity ??--><g id="elem_&#38913;&#33139;"><rect fill="#F1F1F1" height="46.2969" rx="2.5" ry="2.5" style="stroke:#181818;stroke-width:0.5;" width="68" x="124" y="553.78"/><rect fill="#F1F1F1" height="10" style="stroke:#181818;stroke-width:0.5;" width="15" x="172" y="558.78"/><rect fill="#F1F1F1" height="2" style="stroke:#181818;stroke-width:0.5;" width="4" x="170" y="560.78"/><rect fill="#F1F1F1" height="2" style="stroke:#181818;stroke-width:0.5;" width="4" x="170" y="564.78"/><text fill="#000000" font-family="sans-serif" font-size="14" lengthAdjust="spacing" textLength="28" x="139" y="586.7751">&#38913;&#33139;</text></g><g id="elem_GMN26"><path d="M1718.5,199.33 L1718.5,224.4628 L1777.5,224.4628 L1777.5,209.33 L1767.5,199.33 L1718.5,199.33 " fill="#FEFFDD" style="stroke:#181818;stroke-width:0.5;"/><path d="M1767.5,199.33 L1767.5,209.33 L1777.5,209.33 L1767.5,199.33 " fill="#FEFFDD" style="stroke:#181818;stroke-width:1.0;"/><text fill="#000000" font-family="sans-serif" font-size="13" lengthAdjust="spacing" textLength="38" x="1724.5" y="216.3969">&#36335;&#24465;: /</text></g><g id="elem_GMN29"><path d="M1812.5,199.33 L1812.5,224.4628 L1901.5,224.4628 L1901.5,209.33 L1891.5,199.33 L1812.5,199.33 " fill="#FEFFDD" style="stroke:#181818;stroke-width:0.5;"/><path d="M1891.5,199.33 L1891.5,209.33 L1901.5,209.33 L1891.5,199.33 " fill="#FEFFDD" style="stroke:#181818;stroke-width:1.0;"/><text fill="#000000" font-family="sans-serif" font-size="13" lengthAdjust="spacing" textLength="68" x="1818.5" y="216.3969">&#36335;&#24465;: /login</text></g><g id="elem_GMN32"><path d="M1936,199.33 L1936,224.4628 L2044,224.4628 L2044,209.33 L2034,199.33 L1936,199.33 " fill="#FEFFDD" style="stroke:#181818;stroke-width:0.5;"/><path d="M2034,199.33 L2034,209.33 L2044,209.33 L2034,199.33 " fill="#FEFFDD" style="stroke:#181818;stroke-width:1.0;"/><text fill="#000000" font-family="sans-serif" font-size="13" lengthAdjust="spacing" textLength="87" x="1942" y="216.3969">&#36335;&#24465;: /register</text></g><g id="elem_GMN35"><path d="M2079.5,199.33 L2079.5,224.4628 L2206.5,224.4628 L2206.5,209.33 L2196.5,199.33 L2079.5,199.33 " fill="#FEFFDD" style="stroke:#181818;stroke-width:0.5;"/><path d="M2196.5,199.33 L2196.5,209.33 L2206.5,209.33 L2196.5,199.33 " fill="#FEFFDD" style="stroke:#181818;stroke-width:1.0;"/><text fill="#000000" font-family="sans-serif" font-size="13" lengthAdjust="spacing" textLength="106" x="2085.5" y="216.3969">&#36335;&#24465;: /dashboard</text></g><g id="elem_GMN38"><path d="M2241.5,199.33 L2241.5,224.4628 L2342.5,224.4628 L2342.5,209.33 L2332.5,199.33 L2241.5,199.33 " fill="#FEFFDD" style="stroke:#181818;stroke-width:0.5;"/><path d="M2332.5,199.33 L2332.5,209.33 L2342.5,209.33 L2332.5,199.33 " fill="#FEFFDD" style="stroke:#181818;stroke-width:1.0;"/><text fill="#000000" font-family="sans-serif" font-size="13" lengthAdjust="spacing" textLength="80" x="2247.5" y="216.3969">&#36335;&#24465;: /tickets</text></g><g id="elem_GMN41"><path d="M2377.5,199.33 L2377.5,224.4628 L2484.5,224.4628 L2484.5,209.33 L2474.5,199.33 L2377.5,199.33 " fill="#FEFFDD" style="stroke:#181818;stroke-width:0.5;"/><path d="M2474.5,199.33 L2474.5,209.33 L2484.5,209.33 L2474.5,199.33 " fill="#FEFFDD" style="stroke:#181818;stroke-width:1.0;"/><text fill="#000000" font-family="sans-serif" font-size="13" lengthAdjust="spacing" textLength="86" x="2383.5" y="216.3969">&#36335;&#24465;: /contact</text></g><g id="elem_GMN44"><path d="M2519.5,199.33 L2519.5,224.4628 L2620.5,224.4628 L2620.5,209.33 L2610.5,199.33 L2519.5,199.33 " fill="#FEFFDD" style="stroke:#181818;stroke-width:0.5;"/><path d="M2610.5,199.33 L2610.5,209.33 L2620.5,209.33 L2610.5,199.33 " fill="#FEFFDD" style="stroke:#181818;stroke-width:1.0;"/><text fill="#000000" font-family="sans-serif" font-size="13" lengthAdjust="spacing" textLength="80" x="2525.5" y="216.3969">&#36335;&#24465;: /pricing</text></g><g id="elem_GMN47"><path d="M2655.5,199.33 L2655.5,224.4628 L2752.5,224.4628 L2752.5,209.33 L2742.5,199.33 L2655.5,199.33 " fill="#FEFFDD" style="stroke:#181818;stroke-width:0.5;"/><path d="M2742.5,199.33 L2742.5,209.33 L2752.5,209.33 L2742.5,199.33 " fill="#FEFFDD" style="stroke:#181818;stroke-width:1.0;"/><text fill="#000000" font-family="sans-serif" font-size="13" lengthAdjust="spacing" textLength="76" x="2661.5" y="216.3969">&#36335;&#24465;: /terms</text></g><g id="elem_GMN50"><path d="M2787,199.33 L2787,224.4628 L2891,224.4628 L2891,209.33 L2881,199.33 L2787,199.33 " fill="#FEFFDD" style="stroke:#181818;stroke-width:0.5;"/><path d="M2881,199.33 L2881,209.33 L2891,209.33 L2881,199.33 " fill="#FEFFDD" style="stroke:#181818;stroke-width:1.0;"/><text fill="#000000" font-family="sans-serif" font-size="13" lengthAdjust="spacing" textLength="83" x="2793" y="216.3969">&#36335;&#24465;: /privacy</text></g><g id="elem_GMN53"><path d="M2925.5,199.33 L2925.5,224.4628 L3040.5,224.4628 L3040.5,209.33 L3030.5,199.33 L2925.5,199.33 " fill="#FEFFDD" style="stroke:#181818;stroke-width:0.5;"/><path d="M3030.5,199.33 L3030.5,209.33 L3040.5,209.33 L3030.5,199.33 " fill="#FEFFDD" style="stroke:#181818;stroke-width:1.0;"/><text fill="#000000" font-family="sans-serif" font-size="13" lengthAdjust="spacing" textLength="94" x="2931.5" y="216.3969">&#36335;&#24465;: /products</text></g><g id="elem_GMN56"><path d="M3075,199.33 L3075,224.4628 L3171,224.4628 L3171,209.33 L3161,199.33 L3075,199.33 " fill="#FEFFDD" style="stroke:#181818;stroke-width:0.5;"/><path d="M3161,199.33 L3161,209.33 L3171,209.33 L3161,199.33 " fill="#FEFFDD" style="stroke:#181818;stroke-width:1.0;"/><text fill="#000000" font-family="sans-serif" font-size="13" lengthAdjust="spacing" textLength="75" x="3081" y="216.3969">&#36335;&#24465;: /about</text></g><g id="elem_GMN59"><path d="M3205.5,199.33 L3205.5,224.4628 L3284.5,224.4628 L3284.5,209.33 L3274.5,199.33 L3205.5,199.33 " fill="#FEFFDD" style="stroke:#181818;stroke-width:0.5;"/><path d="M3274.5,199.33 L3274.5,209.33 L3284.5,209.33 L3274.5,199.33 " fill="#FEFFDD" style="stroke:#181818;stroke-width:1.0;"/><text fill="#000000" font-family="sans-serif" font-size="13" lengthAdjust="spacing" textLength="58" x="3211.5" y="216.3969">&#36335;&#24465;: /faq</text></g><!--link SessionProvider to RootLayout--><g id="link_SessionProvider_RootLayout"><path d="M152.22,103.84 C150.9,126.64 149.4497,151.6702 148.1197,174.4502 " fill="none" id="SessionProvider-to-RootLayout" style="stroke:#181818;stroke-width:1.0;"/><polygon fill="#181818" points="147.77,180.44,152.2878,171.6884,148.0614,175.4485,144.3014,171.2222,147.77,180.44" style="stroke:#181818;stroke-width:1.0;"/><text fill="#000000" font-family="sans-serif" font-size="13" lengthAdjust="spacing" textLength="26" x="151.48" y="146.6669">&#21253;&#35065;</text></g><!--link RootLayout to Pages--><g id="link_RootLayout_Pages"><path d="M138.45,243.57 C133.62,263.4 127.29,289.79 122,313.19 C120.9175,317.9825 119.8186,322.9238 118.7231,327.9074 C118.6547,328.2189 119.8725,322.6701 119.8041,322.9819 " fill="none" id="RootLayout-to-Pages" style="stroke:#181818;stroke-width:1.0;"/><polygon fill="#181818" points="118.5178,328.8424,124.3543,320.9092,119.5897,323.9586,116.5403,319.1941,118.5178,328.8424" style="stroke:#181818;stroke-width:1.0;"/><text fill="#000000" font-family="sans-serif" font-size="13" lengthAdjust="spacing" textLength="26" x="154.99" y="286.2569">&#21253;&#21547;</text><text fill="#000000" font-family="sans-serif" font-size="13" lengthAdjust="spacing" textLength="72" x="131.99" y="301.3897">(layout.tsx)</text></g><!--link Pages to ???--><g id="link_Pages_&#23566;&#33322;&#27396;"><path d="M94.8618,421.2786 C94.754,421.508 94.6454,421.7393 94.536,421.9725 C94.3173,422.439 94.0955,422.913 93.8708,423.3944 C93.4215,424.3572 92.9604,425.3494 92.489,426.3694 C90.603,430.4491 88.5497,434.9722 86.4038,439.8263 C77.82,459.2425 67.755,483.955 61,506.78 C56.46,522.13 54.0873,533.9421 51.9473,547.6221 " fill="none" id="Pages-to-&#23566;&#33322;&#27396;" style="stroke:#181818;stroke-width:1.0;"/><polygon fill="#181818" points="51.02,553.55,56.3629,545.2764,51.7928,548.6101,48.459,544.0399,51.02,553.55" style="stroke:#181818;stroke-width:1.0;"/><text fill="#000000" font-family="sans-serif" font-size="13" lengthAdjust="spacing" textLength="52" x="62" y="519.8469">&#20840;&#22495;&#20351;&#29992;</text></g><!--link Pages to ??--><g id="link_Pages_&#38913;&#33139;"><path d="M111.7322,459.1945 C111.7985,459.5146 111.8653,459.8352 111.9325,460.1561 C112.4699,462.7238 113.0333,465.3175 113.6231,467.9227 C115.9825,478.3431 118.765,488.945 122,498.78 C128.28,517.88 135.3047,533.1249 143.0747,548.2249 " fill="none" id="Pages-to-&#38913;&#33139;" style="stroke:#181818;stroke-width:1.0;"/><polygon fill="#181818" points="145.82,553.56,145.2588,543.7271,143.5323,549.1141,138.1453,547.3875,145.82,553.56" style="stroke:#181818;stroke-width:1.0;"/><text fill="#000000" font-family="sans-serif" font-size="13" lengthAdjust="spacing" textLength="52" x="132.21" y="519.8469">&#20840;&#22495;&#20351;&#29992;</text></g><!--link GMN26 to HomePage--><g id="link_GMN26_HomePage"><path d="M1746.23,224.86 C1742.46,245.49 1731.52,287.25 1703,305.19 C1668.81,326.69 284.88,294.64 249,313.19 C225.11,325.54 208.12,351.38 197.68,372.09 " fill="none" id="GMN26-HomePage" style="stroke:#181818;stroke-width:1.0;stroke-dasharray:7.0,7.0;"/></g><!--link GMN29 to LoginPage--><g id="link_GMN29_LoginPage"><path d="M1850.74,224.79 C1838.98,245.7 1811.35,288.42 1774,305.19 C1738.6,321.09 411.47,295.36 377,313.19 C353.11,325.54 336.12,351.38 325.68,372.1 " fill="none" id="GMN29-LoginPage" style="stroke:#181818;stroke-width:1.0;stroke-dasharray:7.0,7.0;"/></g><!--link GMN32 to RegisterPage--><g id="link_GMN32_RegisterPage"><path d="M1974.7,224.63 C1946.18,245.7 1882.12,289.21 1820,305.19 C1784.62,314.29 537.44,296.4 505,313.19 C481.11,325.55 464.13,351.38 453.68,372.1 " fill="none" id="GMN32-RegisterPage" style="stroke:#181818;stroke-width:1.0;stroke-dasharray:7.0,7.0;"/></g><!--link GMN35 to DashboardPage--><g id="link_GMN35_DashboardPage"><path d="M2118.51,224.89 C2073.56,246.16 1974.29,289.71 1885,305.19 C1850.76,311.13 664.92,297.33 634,313.19 C609.94,325.53 592.67,351.37 582,372.09 " fill="none" id="GMN35-DashboardPage" style="stroke:#181818;stroke-width:1.0;stroke-dasharray:7.0,7.0;"/></g><!--link GMN38 to TicketsPage--><g id="link_GMN38_TicketsPage"><path d="M2267.88,224.92 C2255.07,230.98 2238.92,238.1 2224,243.19 C2113.61,280.85 2084.76,290.93 1969,305.19 C1952.4,307.23 779.91,305.61 765,313.19 C740.77,325.51 723.21,351.35 712.32,372.08 " fill="none" id="GMN38-TicketsPage" style="stroke:#181818;stroke-width:1.0;stroke-dasharray:7.0,7.0;"/></g><!--link GMN41 to ContactPage--><g id="link_GMN41_ContactPage"><path d="M2406.13,224.86 C2392.7,230.98 2375.7,238.17 2360,243.19 C2237.36,282.41 2204.97,290.9 2077,305.19 C2060.66,307.01 907.6,305.63 893,313.19 C869.12,325.56 852.13,351.39 841.68,372.1 " fill="none" id="GMN41-ContactPage" style="stroke:#181818;stroke-width:1.0;stroke-dasharray:7.0,7.0;"/></g><!--link GMN44 to PricingPage--><g id="link_GMN44_PricingPage"><path d="M2546.58,224.86 C2533.7,231.06 2517.27,238.32 2502,243.19 C2368.97,285.64 2332.9,290.87 2194,305.19 C2177.79,306.86 1035.47,305.7 1021,313.19 C997.12,325.56 980.13,351.39 969.68,372.1 " fill="none" id="GMN44-PricingPage" style="stroke:#181818;stroke-width:1.0;stroke-dasharray:7.0,7.0;"/></g><!--link GMN47 to TermsPage--><g id="link_GMN47_TermsPage"><path d="M2681.32,224.92 C2668.83,231.13 2652.88,238.39 2638,243.19 C2501.79,287.13 2464.4,290.86 2322,305.19 C2305.79,306.82 1163.47,305.7 1149,313.19 C1125.12,325.56 1108.13,351.39 1097.68,372.1 " fill="none" id="GMN47-TermsPage" style="stroke:#181818;stroke-width:1.0;stroke-dasharray:7.0,7.0;"/></g><!--link GMN50 to PrivacyPage--><g id="link_GMN50_PrivacyPage"><path d="M2815.23,224.88 C2802.15,231.07 2785.48,238.33 2770,243.19 C2633.86,285.91 2596.97,290.86 2455,305.19 C2438.72,306.83 1291.53,305.66 1277,313.19 C1253.12,325.56 1236.13,351.39 1225.68,372.1 " fill="none" id="GMN50-PrivacyPage" style="stroke:#181818;stroke-width:1.0;stroke-dasharray:7.0,7.0;"/></g><!--link GMN53 to ProductsPage--><g id="link_GMN53_ProductsPage"><path d="M2957.06,224.82 C2942.82,231 2924.7,238.26 2908,243.19 C2767.79,284.54 2730.47,290.86 2585,305.19 C2568.69,306.8 1419.55,305.65 1405,313.19 C1381.12,325.56 1364.13,351.39 1353.68,372.1 " fill="none" id="GMN53-ProductsPage" style="stroke:#181818;stroke-width:1.0;stroke-dasharray:7.0,7.0;"/></g><!--link GMN56 to AboutPage--><g id="link_GMN56_AboutPage"><path d="M3101.01,224.86 C3088.67,231.13 3072.83,238.47 3058,243.19 C2911.64,289.79 2870.93,290.84 2718,305.19 C2701.63,306.73 1548.63,305.68 1534,313.19 C1509.95,325.53 1492.67,351.37 1482,372.09 " fill="none" id="GMN56-AboutPage" style="stroke:#181818;stroke-width:1.0;stroke-dasharray:7.0,7.0;"/></g><!--link GMN59 to FAQPage--><g id="link_GMN59_FAQPage"><path d="M3236.93,224.94 C3222.26,245.68 3189,287.6 3149,305.19 C3008.62,366.91 1893.65,395.77 1647.13,401.43 " fill="none" id="GMN59-FAQPage" style="stroke:#181818;stroke-width:1.0;stroke-dasharray:7.0,7.0;"/></g><!--SRC=[RPDFJnD168Vl-oacS50FQEAH41A28Hu8GV2c7gQxm-waipjbPbhO61CHQWmGqL0n4Xl-HMY4Y0GI8IZzCkns-osSxL0wiykbQTzvdlUTcSwF5t5GWWpwmAP-YGOe4DCY90YKVVBOiahGBa8NWRunHWE10gSFlBP0ZmKlfX7dc0QJZ5QmWzWhC3GqWUR5I5bumyEW7n9iem8f8zEQebICmv2MHIgeRobEiEi9EuI19VdRuPFoawl9HfVs_aPxUo7ja1BIXnmyfJvAVu5-7tCHCifHLcjzkuogFqnjdBeuK9udiT11SrajQLn6xvTDRGgvSWfYoYIm8gy8CNbUxcNrQEbjijE8wqspmnF8lGA5p54jE9A_4I5PErwMzdfSEuxNpim6px5TH88hVOPG1icSXqNkrCd2SUlYq7H7vPyARQ5SIXm2xPmN_TgC5YzCRv9X6mUkyZhJk4-BEJNUhST7Lvdj8kRVR9O7D7V9xSsJri52Rbe5sg6IN8zoSUS1MxNTQ3sdKgTiTsy7LoWBSnE_Veyt_fhQI46-n-uh2eJD4FHpzt9-dkolH5_MsZkhfZqsykpcFM29Ik-DPRx-wFV7vCFF-6WfzKQxTILFm4e1Cj1VGDZDX4Q-zQHwUeSp9jE4KWVpMPaqEUuUYBVFe-RYzLKzEJsJHxnklhFoMHqO63QpE0YYrMgoTs4PrHJhP52jHvyENmRtIMVneU3p3oorsEccdKt2rKQqjNNzhzcgDNIeUv8C8RSjLzhrtUJFSQjs8WEN7EnPWJmS4BG4w4mltOD0Cj7Lvq7mo01wETO8aXODpCYjHhARkW6R4TLefxjWu7eWDLYeie7g-TDGMvKDL8-SXfPKsTp0RSJqyMans_4sLcR7j9n1jHWPhAeRS2yy6WdJee5rKw91Ct3sFm00]--></g></svg>