<svg xmlns="http://www.w3.org/2000/svg" xmlns:xlink="http://www.w3.org/1999/xlink" contentStyleType="text/css" height="761px" preserveAspectRatio="none" style="width:2166px;height:761px;background:#FFFFFF;" version="1.1" viewBox="0 0 2166 761" width="2166px" zoomAndPan="magnify"><defs/><g><!--cluster IT Hosting Pro--><g id="cluster_IT Hosting Pro"><rect fill="none" height="748.97" rx="2.5" ry="2.5" style="stroke:#181818;stroke-width:1.0;" width="2153" x="7" y="7"/><text fill="#000000" font-family="sans-serif" font-size="14" font-weight="bold" lengthAdjust="spacing" textLength="111" x="1028" y="21.9951">IT Hosting Pro</text></g><!--cluster Pages--><g id="cluster_Pages"><path d="M41.5,175.59 L90.5,175.59 A3.75,3.75 0 0 1 93,178.09 L100,197.8869 L1124.5,197.8869 A2.5,2.5 0 0 1 1127,200.3869 L1127,604.88 A2.5,2.5 0 0 1 1124.5,607.38 L41.5,607.38 A2.5,2.5 0 0 1 39,604.88 L39,178.09 A2.5,2.5 0 0 1 41.5,175.59 " fill="none" style="stroke:#000000;stroke-width:1.5;"/><line style="stroke:#000000;stroke-width:1.5;" x1="39" x2="100" y1="197.8869" y2="197.8869"/><text fill="#000000" font-family="sans-serif" font-size="14" font-weight="bold" lengthAdjust="spacing" textLength="48" x="43" y="190.5851">Pages</text></g><!--cluster API Routes--><g id="cluster_API Routes"><path d="M1532.5,344.19 L1618.5,344.19 A3.75,3.75 0 0 1 1621,346.69 L1628,366.4869 L2133.5,366.4869 A2.5,2.5 0 0 1 2136,368.9869 L2136,455.28 A2.5,2.5 0 0 1 2133.5,457.78 L1532.5,457.78 A2.5,2.5 0 0 1 1530,455.28 L1530,346.69 A2.5,2.5 0 0 1 1532.5,344.19 " fill="none" style="stroke:#000000;stroke-width:1.5;"/><line style="stroke:#000000;stroke-width:1.5;" x1="1530" x2="1628" y1="366.4869" y2="366.4869"/><text fill="#000000" font-family="sans-serif" font-size="14" font-weight="bold" lengthAdjust="spacing" textLength="85" x="1534" y="359.1851">API Routes</text></g><!--cluster Components--><g id="cluster_Components"><path d="M1161.5,344.19 L1262.5,344.19 A3.75,3.75 0 0 1 1265,346.69 L1272,366.4869 L1503.5,366.4869 A2.5,2.5 0 0 1 1506,368.9869 L1506,455.28 A2.5,2.5 0 0 1 1503.5,457.78 L1161.5,457.78 A2.5,2.5 0 0 1 1159,455.28 L1159,346.69 A2.5,2.5 0 0 1 1161.5,344.19 " fill="none" style="stroke:#000000;stroke-width:1.5;"/><line style="stroke:#000000;stroke-width:1.5;" x1="1159" x2="1272" y1="366.4869" y2="366.4869"/><text fill="#000000" font-family="sans-serif" font-size="14" font-weight="bold" lengthAdjust="spacing" textLength="100" x="1163" y="359.1851">Components</text></g><!--entity SessionProviderWrapper--><g id="elem_SessionProviderWrapper"><rect fill="#F0F8FF" height="62.5938" rx="2.5" ry="2.5" style="stroke:#181818;stroke-width:0.5;" width="209" x="1014.5" y="42"/><rect fill="#F0F8FF" height="10" style="stroke:#181818;stroke-width:0.5;" width="15" x="1203.5" y="47"/><rect fill="#F0F8FF" height="2" style="stroke:#181818;stroke-width:0.5;" width="4" x="1201.5" y="49"/><rect fill="#F0F8FF" height="2" style="stroke:#181818;stroke-width:0.5;" width="4" x="1201.5" y="53"/><text fill="#000000" font-family="sans-serif" font-size="14" font-style="italic" lengthAdjust="spacing" textLength="81" x="1073.5" y="74.9951">&#171;NextAuth&#187;</text><text fill="#000000" font-family="sans-serif" font-size="14" lengthAdjust="spacing" textLength="169" x="1029.5" y="91.292">SessionProviderWrapper</text></g><!--entity PostgreSQL--><g id="elem_PostgreSQL"><path d="M1782,688.38 C1782,678.38 1834,678.38 1834,678.38 C1834,678.38 1886,678.38 1886,688.38 L1886,729.9738 C1886,739.9738 1834,739.9738 1834,739.9738 C1834,739.9738 1782,739.9738 1782,729.9738 L1782,688.38 " fill="#DCDCDC" style="stroke:#181818;stroke-width:0.5;"/><path d="M1782,688.38 C1782,698.38 1834,698.38 1834,698.38 C1834,698.38 1886,698.38 1886,688.38 " fill="none" style="stroke:#181818;stroke-width:0.5;"/><text fill="#000000" font-family="sans-serif" font-size="14" font-style="italic" lengthAdjust="spacing" textLength="84" x="1792" y="715.3751">&#171;Database&#187;</text><text fill="#000000" font-family="sans-serif" font-size="14" lengthAdjust="spacing" textLength="81" x="1793.5" y="731.672">PostgreSQL</text></g><!--entity Prisma--><g id="elem_Prisma"><rect fill="#B0E0E6" height="62.5938" rx="2.5" ry="2.5" style="stroke:#181818;stroke-width:0.5;" width="91" x="1788.5" y="520.78"/><rect fill="#B0E0E6" height="10" style="stroke:#181818;stroke-width:0.5;" width="15" x="1859.5" y="525.78"/><rect fill="#B0E0E6" height="2" style="stroke:#181818;stroke-width:0.5;" width="4" x="1857.5" y="527.78"/><rect fill="#B0E0E6" height="2" style="stroke:#181818;stroke-width:0.5;" width="4" x="1857.5" y="531.78"/><text fill="#000000" font-family="sans-serif" font-size="14" font-style="italic" lengthAdjust="spacing" textLength="51" x="1803.5" y="553.7751">&#171;ORM&#187;</text><text fill="#000000" font-family="sans-serif" font-size="14" lengthAdjust="spacing" textLength="46" x="1806" y="570.072">Prisma</text></g><!--entity Home--><g id="elem_Home"><rect fill="#FFE4E1" height="62.5938" rx="2.5" ry="2.5" style="stroke:#181818;stroke-width:0.5;" width="93" x="63.5" y="218.59"/><rect fill="#FFE4E1" height="10" style="stroke:#181818;stroke-width:0.5;" width="15" x="136.5" y="223.59"/><rect fill="#FFE4E1" height="2" style="stroke:#181818;stroke-width:0.5;" width="4" x="134.5" y="225.59"/><rect fill="#FFE4E1" height="2" style="stroke:#181818;stroke-width:0.5;" width="4" x="134.5" y="229.59"/><text fill="#000000" font-family="sans-serif" font-size="14" font-style="italic" lengthAdjust="spacing" textLength="53" x="78.5" y="251.5851">&#171;Page&#187;</text><text fill="#000000" font-family="sans-serif" font-size="14" lengthAdjust="spacing" textLength="41" x="84.5" y="267.882">Home</text></g><!--entity Login--><g id="elem_Login"><rect fill="#E0FFFF" height="62.5938" rx="2.5" ry="2.5" style="stroke:#181818;stroke-width:0.5;" width="93" x="857.5" y="218.59"/><rect fill="#E0FFFF" height="10" style="stroke:#181818;stroke-width:0.5;" width="15" x="930.5" y="223.59"/><rect fill="#E0FFFF" height="2" style="stroke:#181818;stroke-width:0.5;" width="4" x="928.5" y="225.59"/><rect fill="#E0FFFF" height="2" style="stroke:#181818;stroke-width:0.5;" width="4" x="928.5" y="229.59"/><text fill="#000000" font-family="sans-serif" font-size="14" font-style="italic" lengthAdjust="spacing" textLength="53" x="872.5" y="251.5851">&#171;Page&#187;</text><text fill="#000000" font-family="sans-serif" font-size="14" lengthAdjust="spacing" textLength="37" x="880.5" y="267.882">Login</text></g><!--entity Register--><g id="elem_Register"><rect fill="#F5F5DC" height="62.5938" rx="2.5" ry="2.5" style="stroke:#181818;stroke-width:0.5;" width="98" x="986" y="218.59"/><rect fill="#F5F5DC" height="10" style="stroke:#181818;stroke-width:0.5;" width="15" x="1064" y="223.59"/><rect fill="#F5F5DC" height="2" style="stroke:#181818;stroke-width:0.5;" width="4" x="1062" y="225.59"/><rect fill="#F5F5DC" height="2" style="stroke:#181818;stroke-width:0.5;" width="4" x="1062" y="229.59"/><text fill="#000000" font-family="sans-serif" font-size="14" font-style="italic" lengthAdjust="spacing" textLength="53" x="1003.5" y="251.5851">&#171;Page&#187;</text><text fill="#000000" font-family="sans-serif" font-size="14" lengthAdjust="spacing" textLength="58" x="1001" y="267.882">Register</text></g><!--entity Dashboard--><g id="elem_Dashboard"><rect fill="#FFFACD" height="62.5938" rx="2.5" ry="2.5" style="stroke:#181818;stroke-width:0.5;" width="116" x="448" y="218.59"/><rect fill="#FFFACD" height="10" style="stroke:#181818;stroke-width:0.5;" width="15" x="544" y="223.59"/><rect fill="#FFFACD" height="2" style="stroke:#181818;stroke-width:0.5;" width="4" x="542" y="225.59"/><rect fill="#FFFACD" height="2" style="stroke:#181818;stroke-width:0.5;" width="4" x="542" y="229.59"/><text fill="#000000" font-family="sans-serif" font-size="14" font-style="italic" lengthAdjust="spacing" textLength="53" x="474.5" y="251.5851">&#171;Page&#187;</text><text fill="#000000" font-family="sans-serif" font-size="14" lengthAdjust="spacing" textLength="76" x="463" y="267.882">Dashboard</text></g><!--entity Tickets--><g id="elem_Tickets"><rect fill="#E6E6FA" height="62.5938" rx="2.5" ry="2.5" style="stroke:#181818;stroke-width:0.5;" width="93" x="599.5" y="218.59"/><rect fill="#E6E6FA" height="10" style="stroke:#181818;stroke-width:0.5;" width="15" x="672.5" y="223.59"/><rect fill="#E6E6FA" height="2" style="stroke:#181818;stroke-width:0.5;" width="4" x="670.5" y="225.59"/><rect fill="#E6E6FA" height="2" style="stroke:#181818;stroke-width:0.5;" width="4" x="670.5" y="229.59"/><text fill="#000000" font-family="sans-serif" font-size="14" font-style="italic" lengthAdjust="spacing" textLength="53" x="614.5" y="251.5851">&#171;Page&#187;</text><text fill="#000000" font-family="sans-serif" font-size="14" lengthAdjust="spacing" textLength="50" x="616" y="267.882">Tickets</text></g><!--entity Contact--><g id="elem_Contact"><rect fill="#F0FFF0" height="62.5938" rx="2.5" ry="2.5" style="stroke:#181818;stroke-width:0.5;" width="94" x="728" y="218.59"/><rect fill="#F0FFF0" height="10" style="stroke:#181818;stroke-width:0.5;" width="15" x="802" y="223.59"/><rect fill="#F0FFF0" height="2" style="stroke:#181818;stroke-width:0.5;" width="4" x="800" y="225.59"/><rect fill="#F0FFF0" height="2" style="stroke:#181818;stroke-width:0.5;" width="4" x="800" y="229.59"/><text fill="#000000" font-family="sans-serif" font-size="14" font-style="italic" lengthAdjust="spacing" textLength="53" x="743.5" y="251.5851">&#171;Page&#187;</text><text fill="#000000" font-family="sans-serif" font-size="14" lengthAdjust="spacing" textLength="54" x="743" y="267.882">Contact</text></g><!--entity Pricing--><g id="elem_Pricing"><rect fill="#FFF0F5" height="62.5938" rx="2.5" ry="2.5" style="stroke:#181818;stroke-width:0.5;" width="93" x="191.5" y="218.59"/><rect fill="#FFF0F5" height="10" style="stroke:#181818;stroke-width:0.5;" width="15" x="264.5" y="223.59"/><rect fill="#FFF0F5" height="2" style="stroke:#181818;stroke-width:0.5;" width="4" x="262.5" y="225.59"/><rect fill="#FFF0F5" height="2" style="stroke:#181818;stroke-width:0.5;" width="4" x="262.5" y="229.59"/><text fill="#000000" font-family="sans-serif" font-size="14" font-style="italic" lengthAdjust="spacing" textLength="53" x="206.5" y="251.5851">&#171;Page&#187;</text><text fill="#000000" font-family="sans-serif" font-size="14" lengthAdjust="spacing" textLength="46" x="210" y="267.882">Pricing</text></g><!--entity Terms--><g id="elem_Terms"><rect fill="#F5F5F5" height="62.5938" rx="2.5" ry="2.5" style="stroke:#181818;stroke-width:0.5;" width="93" x="319.5" y="218.59"/><rect fill="#F5F5F5" height="10" style="stroke:#181818;stroke-width:0.5;" width="15" x="392.5" y="223.59"/><rect fill="#F5F5F5" height="2" style="stroke:#181818;stroke-width:0.5;" width="4" x="390.5" y="225.59"/><rect fill="#F5F5F5" height="2" style="stroke:#181818;stroke-width:0.5;" width="4" x="390.5" y="229.59"/><text fill="#000000" font-family="sans-serif" font-size="14" font-style="italic" lengthAdjust="spacing" textLength="53" x="334.5" y="251.5851">&#171;Page&#187;</text><text fill="#000000" font-family="sans-serif" font-size="14" lengthAdjust="spacing" textLength="44" x="339" y="267.882">Terms</text></g><!--entity Privacy--><g id="elem_Privacy"><rect fill="#F8F8FF" height="62.5938" rx="2.5" ry="2.5" style="stroke:#181818;stroke-width:0.5;" width="93" x="63.5" y="379.19"/><rect fill="#F8F8FF" height="10" style="stroke:#181818;stroke-width:0.5;" width="15" x="136.5" y="384.19"/><rect fill="#F8F8FF" height="2" style="stroke:#181818;stroke-width:0.5;" width="4" x="134.5" y="386.19"/><rect fill="#F8F8FF" height="2" style="stroke:#181818;stroke-width:0.5;" width="4" x="134.5" y="390.19"/><text fill="#000000" font-family="sans-serif" font-size="14" font-style="italic" lengthAdjust="spacing" textLength="53" x="78.5" y="412.1851">&#171;Page&#187;</text><text fill="#000000" font-family="sans-serif" font-size="14" lengthAdjust="spacing" textLength="47" x="81.5" y="428.482">Privacy</text></g><!--entity Products--><g id="elem_Products"><rect fill="#F5FFFA" height="62.5938" rx="2.5" ry="2.5" style="stroke:#181818;stroke-width:0.5;" width="102" x="192" y="379.19"/><rect fill="#F5FFFA" height="10" style="stroke:#181818;stroke-width:0.5;" width="15" x="274" y="384.19"/><rect fill="#F5FFFA" height="2" style="stroke:#181818;stroke-width:0.5;" width="4" x="272" y="386.19"/><rect fill="#F5FFFA" height="2" style="stroke:#181818;stroke-width:0.5;" width="4" x="272" y="390.19"/><text fill="#000000" font-family="sans-serif" font-size="14" font-style="italic" lengthAdjust="spacing" textLength="53" x="211.5" y="412.1851">&#171;Page&#187;</text><text fill="#000000" font-family="sans-serif" font-size="14" lengthAdjust="spacing" textLength="62" x="207" y="428.482">Products</text></g><!--entity About--><g id="elem_About"><rect fill="#FAFAD2" height="62.5938" rx="2.5" ry="2.5" style="stroke:#181818;stroke-width:0.5;" width="93" x="329.5" y="379.19"/><rect fill="#FAFAD2" height="10" style="stroke:#181818;stroke-width:0.5;" width="15" x="402.5" y="384.19"/><rect fill="#FAFAD2" height="2" style="stroke:#181818;stroke-width:0.5;" width="4" x="400.5" y="386.19"/><rect fill="#FAFAD2" height="2" style="stroke:#181818;stroke-width:0.5;" width="4" x="400.5" y="390.19"/><text fill="#000000" font-family="sans-serif" font-size="14" font-style="italic" lengthAdjust="spacing" textLength="53" x="344.5" y="412.1851">&#171;Page&#187;</text><text fill="#000000" font-family="sans-serif" font-size="14" lengthAdjust="spacing" textLength="41" x="350.5" y="428.482">About</text></g><!--entity FAQ--><g id="elem_FAQ"><rect fill="#FFFFE0" height="62.5938" rx="2.5" ry="2.5" style="stroke:#181818;stroke-width:0.5;" width="93" x="63.5" y="520.78"/><rect fill="#FFFFE0" height="10" style="stroke:#181818;stroke-width:0.5;" width="15" x="136.5" y="525.78"/><rect fill="#FFFFE0" height="2" style="stroke:#181818;stroke-width:0.5;" width="4" x="134.5" y="527.78"/><rect fill="#FFFFE0" height="2" style="stroke:#181818;stroke-width:0.5;" width="4" x="134.5" y="531.78"/><text fill="#000000" font-family="sans-serif" font-size="14" font-style="italic" lengthAdjust="spacing" textLength="53" x="78.5" y="553.7751">&#171;Page&#187;</text><text fill="#000000" font-family="sans-serif" font-size="14" lengthAdjust="spacing" textLength="28" x="91" y="570.072">FAQ</text></g><!--entity LoginAPI--><g id="elem_LoginAPI"><rect fill="#F0F8FF" height="62.5938" rx="2.5" ry="2.5" style="stroke:#181818;stroke-width:0.5;" width="98" x="1867" y="379.19"/><rect fill="#F0F8FF" height="10" style="stroke:#181818;stroke-width:0.5;" width="15" x="1945" y="384.19"/><rect fill="#F0F8FF" height="2" style="stroke:#181818;stroke-width:0.5;" width="4" x="1943" y="386.19"/><rect fill="#F0F8FF" height="2" style="stroke:#181818;stroke-width:0.5;" width="4" x="1943" y="390.19"/><text fill="#000000" font-family="sans-serif" font-size="14" font-style="italic" lengthAdjust="spacing" textLength="39" x="1891.5" y="412.1851">&#171;API&#187;</text><text fill="#000000" font-family="sans-serif" font-size="14" lengthAdjust="spacing" textLength="58" x="1882" y="428.482">LoginAPI</text></g><!--entity RegisterAPI--><g id="elem_RegisterAPI"><rect fill="#F0F8FF" height="62.5938" rx="2.5" ry="2.5" style="stroke:#181818;stroke-width:0.5;" width="119" x="2000.5" y="379.19"/><rect fill="#F0F8FF" height="10" style="stroke:#181818;stroke-width:0.5;" width="15" x="2099.5" y="384.19"/><rect fill="#F0F8FF" height="2" style="stroke:#181818;stroke-width:0.5;" width="4" x="2097.5" y="386.19"/><rect fill="#F0F8FF" height="2" style="stroke:#181818;stroke-width:0.5;" width="4" x="2097.5" y="390.19"/><text fill="#000000" font-family="sans-serif" font-size="14" font-style="italic" lengthAdjust="spacing" textLength="39" x="2035.5" y="412.1851">&#171;API&#187;</text><text fill="#000000" font-family="sans-serif" font-size="14" lengthAdjust="spacing" textLength="79" x="2015.5" y="428.482">RegisterAPI</text></g><!--entity UserAPI--><g id="elem_UserAPI"><rect fill="#F0F8FF" height="62.5938" rx="2.5" ry="2.5" style="stroke:#181818;stroke-width:0.5;" width="93" x="1546.5" y="379.19"/><rect fill="#F0F8FF" height="10" style="stroke:#181818;stroke-width:0.5;" width="15" x="1619.5" y="384.19"/><rect fill="#F0F8FF" height="2" style="stroke:#181818;stroke-width:0.5;" width="4" x="1617.5" y="386.19"/><rect fill="#F0F8FF" height="2" style="stroke:#181818;stroke-width:0.5;" width="4" x="1617.5" y="390.19"/><text fill="#000000" font-family="sans-serif" font-size="14" font-style="italic" lengthAdjust="spacing" textLength="39" x="1568.5" y="412.1851">&#171;API&#187;</text><text fill="#000000" font-family="sans-serif" font-size="14" lengthAdjust="spacing" textLength="53" x="1561.5" y="428.482">UserAPI</text></g><!--entity SupportTicketAPI--><g id="elem_SupportTicketAPI"><rect fill="#F0F8FF" height="62.5938" rx="2.5" ry="2.5" style="stroke:#181818;stroke-width:0.5;" width="158" x="1674" y="379.19"/><rect fill="#F0F8FF" height="10" style="stroke:#181818;stroke-width:0.5;" width="15" x="1812" y="384.19"/><rect fill="#F0F8FF" height="2" style="stroke:#181818;stroke-width:0.5;" width="4" x="1810" y="386.19"/><rect fill="#F0F8FF" height="2" style="stroke:#181818;stroke-width:0.5;" width="4" x="1810" y="390.19"/><text fill="#000000" font-family="sans-serif" font-size="14" font-style="italic" lengthAdjust="spacing" textLength="39" x="1728.5" y="412.1851">&#171;API&#187;</text><text fill="#000000" font-family="sans-serif" font-size="14" lengthAdjust="spacing" textLength="118" x="1689" y="428.482">SupportTicketAPI</text></g><!--entity Navbar--><g id="elem_Navbar"><rect fill="#FFEBCD" height="62.5938" rx="2.5" ry="2.5" style="stroke:#181818;stroke-width:0.5;" width="140" x="1175" y="379.19"/><rect fill="#FFEBCD" height="10" style="stroke:#181818;stroke-width:0.5;" width="15" x="1295" y="384.19"/><rect fill="#FFEBCD" height="2" style="stroke:#181818;stroke-width:0.5;" width="4" x="1293" y="386.19"/><rect fill="#FFEBCD" height="2" style="stroke:#181818;stroke-width:0.5;" width="4" x="1293" y="390.19"/><text fill="#000000" font-family="sans-serif" font-size="14" font-style="italic" lengthAdjust="spacing" textLength="100" x="1190" y="412.1851">&#171;Component&#187;</text><text fill="#000000" font-family="sans-serif" font-size="14" lengthAdjust="spacing" textLength="47" x="1216.5" y="428.482">Navbar</text></g><!--entity Footer--><g id="elem_Footer"><rect fill="#FFEBCD" height="62.5938" rx="2.5" ry="2.5" style="stroke:#181818;stroke-width:0.5;" width="140" x="1350" y="379.19"/><rect fill="#FFEBCD" height="10" style="stroke:#181818;stroke-width:0.5;" width="15" x="1470" y="384.19"/><rect fill="#FFEBCD" height="2" style="stroke:#181818;stroke-width:0.5;" width="4" x="1468" y="386.19"/><rect fill="#FFEBCD" height="2" style="stroke:#181818;stroke-width:0.5;" width="4" x="1468" y="390.19"/><text fill="#000000" font-family="sans-serif" font-size="14" font-style="italic" lengthAdjust="spacing" textLength="100" x="1365" y="412.1851">&#171;Component&#187;</text><text fill="#000000" font-family="sans-serif" font-size="14" lengthAdjust="spacing" textLength="45" x="1392.5" y="428.482">Footer</text></g><!--link SessionProviderWrapper to Pages--><g id="link_SessionProviderWrapper_Pages"><path d="M1119,104.71 C1119,117.02 1119,132.0031 1119,147.5981 C1119,155.3956 1119,163.3461 1119,171.1919 C1119,172.1726 1119,173.1517 1119,174.1286 C1119,174.3729 1119,168.617 1119,168.8609 " fill="none" id="SessionProviderWrapper-to-Pages" style="stroke:#181818;stroke-width:1.0;"/><polygon fill="#181818" points="1119,174.8609,1123,165.8609,1119,169.8609,1115,165.8609,1119,174.8609" style="stroke:#181818;stroke-width:1.0;"/><text fill="#000000" font-family="sans-serif" font-size="13" lengthAdjust="spacing" textLength="78" x="1120" y="147.6569">&#25552;&#20379;&#26371;&#35441;&#29376;&#24907;</text></g><!--link Pages to Navbar--><g id="link_Pages_Navbar"><path d="M1127.014,299.3301 C1127.0535,299.4609 1127.0932,299.5917 1127.1331,299.7225 C1127.2925,300.2458 1127.4551,300.7692 1127.6209,301.2927 C1127.9524,302.3395 1128.2966,303.3862 1128.6539,304.4309 C1131.5125,312.7888 1135.2125,321.02 1140,328.19 C1153.38,348.23 1168.4291,361.9886 1187.3591,375.3586 " fill="none" id="Pages-to-Navbar" style="stroke:#181818;stroke-width:1.0;"/><polygon fill="#181818" points="1192.26,378.82,1187.2163,370.3606,1188.1759,375.9355,1182.6011,376.8951,1192.26,378.82" style="stroke:#181818;stroke-width:1.0;"/><text fill="#000000" font-family="sans-serif" font-size="13" lengthAdjust="spacing" textLength="26" x="1141" y="324.2569">&#21253;&#21547;</text></g><!--link Pages to Footer--><g id="link_Pages_Footer"><path d="M1127.6677,250.9781 C1132.6813,251.0354 1139.7613,251.1243 1148.6239,251.2555 C1166.3491,251.5179 1191.2044,251.9495 1220.9188,252.6366 C1280.3475,254.0106 1359.2125,256.4063 1439.345,260.5125 C1599.61,268.725 1764.945,283.78 1790,311.19 C1795.1,316.77 1795.26,322.76 1790,328.19 C1779.94,338.56 1543.77,331.79 1530,336.19 C1502.46,344.99 1480.1112,359.1901 1459.7112,375.1001 " fill="none" id="Pages-to-Footer" style="stroke:#181818;stroke-width:1.0;"/><polygon fill="#181818" points="1454.98,378.79,1464.5368,376.4093,1458.9227,375.7151,1459.6169,370.101,1454.98,378.79" style="stroke:#181818;stroke-width:1.0;"/><text fill="#000000" font-family="sans-serif" font-size="13" lengthAdjust="spacing" textLength="26" x="1794.88" y="324.2569">&#21253;&#21547;</text></g><!--link Login to LoginAPI--><g id="link_Login_LoginAPI"><path d="M950.8,275.22 C956.8,277.59 962.96,279.67 969,281.19 C1196.94,338.53 1269.2,253.27 1497,311.19 C1514.15,315.55 1515.78,324.1 1533,328.19 C1567.17,336.31 1817.04,321.62 1849,336.19 C1868.77,345.2 1881.7347,358.2742 1893.4447,374.1242 " fill="none" id="Login-to-LoginAPI" style="stroke:#181818;stroke-width:1.0;"/><polygon fill="#181818" points="1897.01,378.95,1894.8792,369.3344,1894.0389,374.9285,1888.4448,374.0882,1897.01,378.95" style="stroke:#181818;stroke-width:1.0;"/><text fill="#000000" font-family="sans-serif" font-size="13" lengthAdjust="spacing" textLength="95" x="1534" y="324.2569">POST /api/login</text></g><!--link Register to RegisterAPI--><g id="link_Register_RegisterAPI"><path d="M1084.34,280.01 C1085.56,280.44 1086.78,280.83 1088,281.19 C1321.09,350.01 1399.88,245.99 1634,311.19 C1649.51,315.51 1650.42,324.1 1666,328.19 C1699.97,337.11 1949.51,322.84 1982,336.19 C2003.66,345.09 2018.9301,358.4723 2032.8801,374.3523 " fill="none" id="Register-to-RegisterAPI" style="stroke:#181818;stroke-width:1.0;"/><polygon fill="#181818" points="2036.84,378.86,2033.9053,369.4585,2033.5401,375.1036,2027.8951,374.7383,2036.84,378.86" style="stroke:#181818;stroke-width:1.0;"/><text fill="#000000" font-family="sans-serif" font-size="13" lengthAdjust="spacing" textLength="114" x="1667" y="324.2569">POST /api/register</text></g><!--link Dashboard to UserAPI--><g id="link_Dashboard_UserAPI"><path d="M564.32,276.34 C570.21,278.24 576.17,279.92 582,281.19 C838.51,337.22 917.34,247.25 1172,311.19 C1189.16,315.5 1190.79,324.09 1208,328.19 C1240.22,335.87 1475.04,324.41 1506,336.19 C1529.26,345.04 1546.4735,358.6713 1562.2435,374.5613 " fill="none" id="Dashboard-to-UserAPI" style="stroke:#181818;stroke-width:1.0;"/><polygon fill="#181818" points="1566.47,378.82,1562.9693,369.6143,1562.9479,375.2711,1557.2911,375.2497,1566.47,378.82" style="stroke:#181818;stroke-width:1.0;"/><text fill="#000000" font-family="sans-serif" font-size="13" lengthAdjust="spacing" textLength="84" x="1209" y="324.2569">GET /api/user</text></g><!--link Tickets to SupportTicketAPI--><g id="link_Tickets_SupportTicketAPI"><path d="M692.76,275.54 C698.45,277.78 704.28,279.75 710,281.19 C963.76,345.05 1045.78,241.48 1298,311.19 C1313.52,315.48 1314.42,324.1 1330,328.19 C1365.16,337.41 1622.72,324.13 1657,336.19 C1681.92,344.96 1701.1202,358.8252 1718.7102,374.7352 " fill="none" id="Tickets-to-SupportTicketAPI" style="stroke:#181818;stroke-width:1.0;"/><polygon fill="#181818" points="1723.16,378.76,1719.1685,369.7562,1719.4518,375.406,1713.8021,375.6893,1723.16,378.76" style="stroke:#181818;stroke-width:1.0;"/><text fill="#000000" font-family="sans-serif" font-size="13" lengthAdjust="spacing" textLength="63" x="1331" y="324.2569">CRUD&#25805;&#20316;</text></g><!--link Contact to SupportTicketAPI--><g id="link_Contact_SupportTicketAPI"><path d="M822.16,275.38 C828.05,277.69 834.08,279.71 840,281.19 C1083.11,341.9 1160.04,249.87 1403,311.19 C1420.16,315.52 1421.81,324 1439,328.19 C1486.1,339.66 1611.37,319.82 1657,336.19 C1681.87,345.11 1701.0553,358.9806 1718.6553,374.8606 " fill="none" id="Contact-to-SupportTicketAPI" style="stroke:#181818;stroke-width:1.0;"/><polygon fill="#181818" points="1723.11,378.88,1719.1075,369.8811,1719.3977,375.5305,1713.7483,375.8207,1723.11,378.88" style="stroke:#181818;stroke-width:1.0;"/><text fill="#000000" font-family="sans-serif" font-size="13" lengthAdjust="spacing" textLength="52" x="1440" y="324.2569">&#21109;&#24314;&#24037;&#21934;</text></g><!--link LoginAPI to Prisma--><g id="link_LoginAPI_Prisma"><path d="M1898,442.12 C1884.33,465.39 1868.6484,492.0862 1854.9884,515.3462 " fill="none" id="LoginAPI-to-Prisma" style="stroke:#181818;stroke-width:1.0;"/><polygon fill="#181818" points="1851.95,520.52,1859.9568,514.785,1854.482,516.2085,1853.0585,510.7337,1851.95,520.52" style="stroke:#181818;stroke-width:1.0;"/><text fill="#000000" font-family="sans-serif" font-size="13" lengthAdjust="spacing" textLength="52" x="1878.46" y="486.8469">&#39511;&#35657;&#24977;&#35657;</text></g><!--link RegisterAPI to Prisma--><g id="link_RegisterAPI_Prisma"><path d="M2017.1,442.28 C2005.81,450.13 1993.55,458.42 1982,465.78 C1948.49,487.14 1914.7505,506.5882 1885.2105,523.0582 " fill="none" id="RegisterAPI-to-Prisma" style="stroke:#181818;stroke-width:1.0;"/><polygon fill="#181818" points="1879.97,525.98,1889.7786,525.0909,1884.3371,523.5451,1885.8829,518.1036,1879.97,525.98" style="stroke:#181818;stroke-width:1.0;"/><text fill="#000000" font-family="sans-serif" font-size="13" lengthAdjust="spacing" textLength="52" x="1967.3" y="486.8469">&#21109;&#24314;&#29992;&#25142;</text></g><!--link UserAPI to Prisma--><g id="link_UserAPI_Prisma"><path d="M1625.95,442.2 C1635.57,450.39 1646.37,458.87 1657,465.78 C1699.19,493.2 1745.9931,515.0048 1782.7731,530.5448 " fill="none" id="UserAPI-to-Prisma" style="stroke:#181818;stroke-width:1.0;"/><polygon fill="#181818" points="1788.3,532.88,1781.5664,525.6926,1783.6942,530.934,1778.4528,533.0618,1788.3,532.88" style="stroke:#181818;stroke-width:1.0;"/><text fill="#000000" font-family="sans-serif" font-size="13" lengthAdjust="spacing" textLength="52" x="1699.73" y="486.8469">&#26597;&#35426;&#36039;&#26009;</text></g><!--link SupportTicketAPI to Prisma--><g id="link_SupportTicketAPI_Prisma"><path d="M1770.78,442.12 C1784.28,465.39 1799.7582,492.0707 1813.2582,515.3307 " fill="none" id="SupportTicketAPI-to-Prisma" style="stroke:#181818;stroke-width:1.0;"/><polygon fill="#181818" points="1816.27,520.52,1815.2118,510.7282,1813.7601,516.1956,1808.2927,514.744,1816.27,520.52" style="stroke:#181818;stroke-width:1.0;"/><text fill="#000000" font-family="sans-serif" font-size="13" lengthAdjust="spacing" textLength="52" x="1799.35" y="486.8469">&#24037;&#21934;&#34389;&#29702;</text></g><!--link Prisma to PostgreSQL--><g id="link_Prisma_PostgreSQL"><path d="M1834,583.72 C1834,611.09 1834,644.94 1834,672.12 " fill="none" id="Prisma-to-PostgreSQL" style="stroke:#181818;stroke-width:1.0;"/><polygon fill="#181818" points="1834,678.12,1838,669.12,1834,673.12,1830,669.12,1834,678.12" style="stroke:#181818;stroke-width:1.0;"/><text fill="#000000" font-family="sans-serif" font-size="13" lengthAdjust="spacing" textLength="55" x="1835" y="644.4469">ORM&#36899;&#25509;</text></g><!--SRC=[ZPDlIzj07CUVtwiut8Cz4ZkP8g48iSbDmMbjbJs-faSDRNCXkSfa37IYcxW_ZcsAh39nAwmRsn0tDoRJDzEawRlONPBM9AriBHpaxlFx_lxRPTqmiOMhKADLanh4O7csMY6mLgsC0c0HZM6ZnB-7PXRXDBMPRfHWrg93y060LpOmJsnRfmP_MT6BnBfdOTCa5aodvyXz9jVOykGal85IQ08Xm0rDh9LnYQjc-Ma7Ob6vQLebt5Yy-eP8lQtUIZ2pjAGR4KXD8VvBG3bIqctcHz8J6qDZIYR1ATXUBb1i5MDUaPnH4k2YhfK9iwD-nzLn92Um33KOrbXKJOINIc1PIzT4HMDEKsWiwPHOLJkHGX_4jLQmjXh59lnw9p5Qh6ai8OVwCf0Bj1QBNqQoCfg0aBmGZnsf8iM7iHxBsHcOusA36kqtKG3fD3yZGpAuZVycb-p_eV8rqwGM2vev68_daEcQ3iXX3gyKi9Ym7XJEx5JVz21AWs4SZFe-YvZX0hO9pF9rAraalp3B3PJmLl1AHln1elbs5NDkFdTN85CfDQME0ovu4xf7lvpBZTR5eNVwlRDVRrq-0jUiw_3m9FGt4ahGVR7RkdZhrZUyvabxPytTt15QdQFrpk6nixdHEZ_ZMjxwDn0O2DEm419qdcuwkvyZBs7UlHUknEljVRfil_uOXXIiiu1xCo71x7n-4OvWKn-fY4lGMsV1HOSYYbhXFRXQQe5t9qE2TzIGhF4hqDremVJDXGGpkIN5VVMizQSEkajz3Ubi_t3EVpi_6yxULv6XT_hOtJjmJZvqrjwxpnkWbvTVvg1X4kmqzxqls-xMItw2Q4enAj3crNAVd85k9Z72VTVmciU1Jz0NNLpC3z4xUDFUtGBXhGzS3Pm4-I05SVy5]--></g></svg>